<?xml version="1.0" encoding="utf-8"?>
<!-- Generated by IcoMoon.io -->
<!DOCTYPE svg PUBLIC "-//W3C//DTD SVG 1.1//EN" "http://www.w3.org/Graphics/SVG/1.1/DTD/svg11.dtd">
<svg version="1.1" xmlns="http://www.w3.org/2000/svg" xmlns:xlink="http://www.w3.org/1999/xlink" width="83" height="16" viewBox="0 0 83 16">
<path fill="#444" d="M2.313 9.454v6.266h-2.328v-15.43h2.638c1.292 0 2.269 0.090 2.928 0.27 0.666 0.18 1.253 0.52 1.759 1.019 0.886 0.866 1.329 1.959 1.329 3.278 0 1.412-0.473 2.532-1.419 3.358s-2.222 1.239-3.828 1.239h-1.079zM2.313 7.296h0.869c2.139 0 3.208-0.823 3.208-2.469 0-1.592-1.103-2.388-3.308-2.388h-0.769v4.857z"></path>
<path fill="#444" d="M9.388 7.935c0-2.172 0.796-4.037 2.389-5.596 1.585-1.559 3.491-2.339 5.716-2.339 2.199 0 4.084 0.786 5.656 2.359 1.579 1.572 2.369 3.461 2.369 5.666 0 2.219-0.793 4.101-2.379 5.647-1.592 1.552-3.514 2.328-5.766 2.328-1.992 0-3.781-0.69-5.367-2.069-1.745-1.526-2.618-3.524-2.618-5.996zM11.737 7.96c0 1.704 0.573 3.105 1.719 4.204 1.139 1.098 2.455 1.648 3.948 1.648 1.619 0 2.985-0.559 4.097-1.678 1.113-1.132 1.669-2.509 1.669-4.134 0-1.644-0.55-3.022-1.649-4.134-1.093-1.118-2.445-1.678-4.057-1.678-1.606 0-2.962 0.559-4.068 1.678-1.106 1.105-1.659 2.47-1.659 4.094z"></path>
<path fill="#444" d="M29.138 0.29v13.242h4.537v2.188h-6.866v-15.43h2.329z"></path>
<path fill="#444" d="M37.658 0.29v15.43h-2.329v-15.43h2.329z"></path>
<path fill="#444" d="M45.18 2.478v13.242h-2.329v-13.242h-3.548v-2.189h9.414v2.189h-3.538z"></path>
<path fill="#444" d="M52.693 0.29v15.43h-2.328v-15.43h2.328z"></path>
<path fill="#444" d="M66.305 1.114v2.753c-1.346-1.126-2.738-1.689-4.177-1.689-1.586 0-2.922 0.57-4.008 1.709-1.093 1.133-1.639 2.518-1.639 4.157 0 1.619 0.546 2.985 1.639 4.098s2.432 1.669 4.018 1.669c0.819 0 1.516-0.133 2.089-0.4 0.32-0.133 0.651-0.313 0.994-0.54s0.704-0.499 1.084-0.819v2.813c-1.332 0.756-2.732 1.135-4.197 1.135-2.205 0-4.088-0.769-5.647-2.309-1.553-1.553-2.329-3.425-2.329-5.616 0-1.965 0.65-3.718 1.949-5.257 1.599-1.885 3.668-2.828 6.206-2.828 1.386 0 2.725 0.375 4.018 1.124z"></path>
<path fill="#444" d="M66.652 7.935c0-2.172 0.796-4.037 2.389-5.596 1.585-1.559 3.491-2.339 5.716-2.339 2.199 0 4.084 0.786 5.656 2.359 1.579 1.572 2.369 3.461 2.369 5.666 0 2.219-0.793 4.101-2.379 5.647-1.592 1.552-3.514 2.328-5.766 2.328-1.992 0-3.781-0.69-5.367-2.069-1.746-1.526-2.619-3.524-2.619-5.996zM69.001 7.96c0 1.704 0.573 3.105 1.719 4.204 1.139 1.098 2.455 1.648 3.948 1.648 1.619 0 2.985-0.559 4.097-1.678 1.113-1.132 1.669-2.509 1.669-4.134 0-1.644-0.55-3.022-1.649-4.134-1.093-1.118-2.445-1.678-4.057-1.678-1.606 0-2.962 0.559-4.068 1.678-1.106 1.105-1.659 2.47-1.659 4.094z"></path>
</svg>
