<?xml version="1.0" encoding="utf-8"?>
<!-- Generated by IcoMoon.io -->
<!DOCTYPE svg PUBLIC "-//W3C//DTD SVG 1.1//EN" "http://www.w3.org/Graphics/SVG/1.1/DTD/svg11.dtd">
<svg version="1.1" xmlns="http://www.w3.org/2000/svg" xmlns:xlink="http://www.w3.org/1999/xlink" width="128" height="16" viewBox="0 0 128 16">
<path d="M2.219 9.601v5.623h-2.090v-13.845h2.368c1.16 0 2.036 0.080 2.627 0.242 0.598 0.161 1.124 0.465 1.579 0.913 0.794 0.779 1.192 1.759 1.192 2.943 0 1.267-0.424 2.273-1.273 3.013-0.849 0.742-1.994 1.112-3.435 1.112h-0.967zM2.219 7.666h0.78c1.919 0 2.879-0.74 2.879-2.218 0-1.427-0.99-2.143-2.97-2.143h-0.69v4.36z"></path>
<path d="M8.567 8.24c0-1.949 0.715-3.624 2.143-5.024 1.423-1.397 3.133-2.099 5.13-2.099 1.973 0 3.665 0.706 5.075 2.118 1.417 1.41 2.127 3.105 2.127 5.084 0 1.99-0.713 3.678-2.134 5.067-1.43 1.393-3.155 2.090-5.174 2.090-1.788 0-3.394-0.621-4.817-1.856-1.566-1.371-2.35-3.163-2.35-5.381zM10.675 8.262c0 1.529 0.514 2.785 1.543 3.771 1.022 0.986 2.202 1.48 3.542 1.48 1.453 0 2.679-0.502 3.677-1.505 0.999-1.017 1.497-2.251 1.497-3.71 0-1.476-0.493-2.712-1.479-3.709-0.98-1.005-2.194-1.507-3.64-1.507-1.441 0-2.658 0.502-3.65 1.507-0.992 0.991-1.489 2.214-1.489 3.674z"></path>
<path d="M26.29 1.379v11.881h4.071v1.964h-6.161v-13.845z"></path>
<path d="M31.845 1.38h2.090v13.845h-2.090v-13.845z"></path>
<path d="M40.685 3.343v11.881h-2.090v-11.881h-3.183v-1.963h8.448v1.963z"></path>
<path d="M45.338 1.38h2.089v13.845h-2.089v-13.845z"></path>
<path d="M59.64 2.116v2.473c-1.207-1.009-2.457-1.515-3.749-1.515-1.422 0-2.62 0.51-3.596 1.532-0.98 1.017-1.47 2.259-1.47 3.73 0 1.454 0.49 2.677 1.47 3.677 0.982 0.997 2.183 1.498 3.606 1.498 0.735 0 1.36-0.12 1.875-0.36 0.287-0.119 0.584-0.28 0.892-0.484s0.633-0.447 0.972-0.734v2.524c-1.195 0.678-2.45 1.018-3.765 1.018-1.979 0-3.668-0.691-5.066-2.074-1.394-1.391-2.090-3.072-2.090-5.040 0-1.764 0.583-3.335 1.748-4.718 1.434-1.69 3.291-2.536 5.569-2.536 1.243-0.001 2.446 0.337 3.604 1.006z"></path>
<path d="M59.953 8.24c0-1.949 0.714-3.624 2.143-5.024 1.423-1.397 3.133-2.099 5.13-2.099 1.973 0 3.664 0.706 5.074 2.118 1.417 1.41 2.126 3.105 2.126 5.084 0 1.99-0.71 3.678-2.134 5.067-1.429 1.393-3.152 2.090-5.174 2.090-1.787 0-3.392-0.621-4.816-1.856-1.567-1.371-2.349-3.163-2.349-5.381zM62.060 8.262c0 1.529 0.514 2.785 1.543 3.771 1.022 0.986 2.203 1.48 3.541 1.48 1.454 0 2.679-0.502 3.677-1.505 0.997-1.017 1.497-2.251 1.497-3.71 0-1.476-0.493-2.712-1.479-3.709-0.981-1.005-2.195-1.507-3.642-1.507-1.44 0-2.657 0.502-3.649 1.507-0.992 0.991-1.489 2.214-1.489 3.674z"></path>
<path d="M88.513 3.34h-0.037l-4.781 11.797-4.763-11.797h-0.036l-2.345 11.343h-0.836l2.945-14.161 5.035 12.47 5.053-12.47 2.945 14.161h-0.836l-2.344-11.343z"></path>
<path d="M94.246 1.796v4.981h5.526v0.818h-5.526v6.271h5.672v0.818h-6.544v-13.706h6.544v0.818h-5.672z"></path>
<path d="M102.128 0.978h2.472c1.999 0 3.581 0.327 5.090 1.727 1.436 1.345 2.181 3.181 2.181 5.144 0 1.891-0.727 3.69-2.109 5.017-1.509 1.454-3.126 1.818-5.162 1.818h-2.472v-13.706zM104.582 13.865c1.8 0 3.291-0.364 4.599-1.654 1.163-1.163 1.818-2.727 1.818-4.363 0-1.745-0.691-3.381-1.981-4.563-1.309-1.182-2.727-1.49-4.436-1.49h-1.581v12.070h1.581z"></path>
<path d="M114.392 14.683h-0.873v-13.706h0.873v13.706z"></path>
<path d="M118.727 10.175l-1.836 4.508h-0.891l5.744-14.161 5.726 14.161h-0.89l-1.836-4.508h-6.017zM121.745 2.741l-2.69 6.617h5.363l-2.672-6.617z"></path>
</svg>
