<?xml version="1.0" encoding="utf-8"?>
<!-- Generated by IcoMoon.io -->
<!DOCTYPE svg PUBLIC "-//W3C//DTD SVG 1.1//EN" "http://www.w3.org/Graphics/SVG/1.1/DTD/svg11.dtd">
<svg version="1.1" xmlns="http://www.w3.org/2000/svg" xmlns:xlink="http://www.w3.org/1999/xlink" width="29" height="16" viewBox="0 0 29 16">
<path d="M5.066 2.785c-0.814-0.692-1.769-0.749-2.678-0.748l-2.388 0.002 0.005 11.955 1.572-0.001-0.004-5.268 0.82-0.001c0.782-0.001 1.917-0.086 2.747-0.808 0.667-0.557 1.080-1.524 1.080-2.524-0.001-1.052-0.411-1.979-1.154-2.607zM2.421 7.201l-0.85 0.001-0.003-3.641 0.732-0.001c0.69-0.001 1.252 0.025 1.687 0.356 0.416 0.306 0.664 0.847 0.664 1.448 0 0.542-0.194 0.994-0.577 1.343-0.457 0.411-0.972 0.494-1.654 0.494z"></path>
<path d="M14.472 5.408c0.017-1.165-0.445-2.139-1.298-2.738-0.884-0.641-1.894-0.64-2.784-0.639l-1.814 0.001 0.006 11.955 1.57-0.001-0.004-5.253 0.755-0.001 3.624 5.25 1.857-0.001-3.788-5.466c1.238-0.544 1.853-1.566 1.876-3.108zM10.145 3.554l0.37-0.001c0.514-0 1.050 0.015 1.467 0.213 0.68 0.302 0.922 1.028 0.923 1.607 0 0.582-0.225 1.099-0.631 1.426-0.436 0.379-1.009 0.41-1.659 0.411l-0.467 0-0.003-3.656z"></path>
<path d="M22.643 1.875c-3.352 0.003-6.182 2.81-6.179 6.13s2.837 6.123 6.189 6.12c3.352-0.003 6.181-2.81 6.179-6.13s-2.836-6.123-6.188-6.12zM22.651 12.602c-2.502 0.002-4.618-2.104-4.62-4.598s2.11-4.603 4.613-4.605c2.502-0.002 4.618 2.104 4.62 4.598s-2.11 4.603-4.613 4.605z"></path>
</svg>
